<svg width="16" height="16" viewBox="0 0 16 16" fill="none" xmlns="http://www.w3.org/2000/svg">
<path fill-rule="evenodd" clip-rule="evenodd" d="M0 6C0 9.31371 2.68629 12 6 12C7.38531 12 8.66097 11.5305 9.67654 10.742C9.71479 10.8229 9.76738 10.8988 9.83431 10.9657L14.6343 15.7657C14.9467 16.0781 15.4533 16.0781 15.7657 15.7657C16.0781 15.4533 16.0781 14.9467 15.7657 14.6343L10.9657 9.83431C10.8988 9.76738 10.8229 9.71479 10.742 9.67654C11.5305 8.66097 12 7.38531 12 6C12 2.68629 9.31371 0 6 0C2.68629 0 0 2.68629 0 6ZM1.6 6C1.6 3.56995 3.56995 1.6 6 1.6C8.43005 1.6 10.4 3.56995 10.4 6C10.4 8.43005 8.43005 10.4 6 10.4C3.56995 10.4 1.6 8.43005 1.6 6Z" fill="#C5CAD3"/>
</svg>
