<svg width="10" height="20" viewBox="0 0 10 20" fill="none" xmlns="http://www.w3.org/2000/svg">
<path fill-rule="evenodd" clip-rule="evenodd" d="M10 5.03108C10 4.08664 9.69535 2.85647 8.91762 1.83915C8.10889 0.781258 6.81948 -1.39025e-07 5 -2.18557e-07C2.5314 -3.26463e-07 -8.21424e-08 1.8792 -2.19916e-07 5.03108C-3.09796e-07 7.0873 1.12356 8.44572 2 9.10493L2 9.64538L0.609338 11.0447C0.0688777 11.5885 0.0212263 12.4543 0.498695 13.0548L1.71937 14.5901L0.584293 16.0178C0.00887988 16.7415 0.211639 17.8113 1.01139 18.2711L3.67228 19.8011C4.25958 20.1388 4.99884 20.0392 5.47715 19.5579L7.56066 17.4614C7.84196 17.1784 8 16.7945 8 16.3942L8 12.0746L8 9.09683C8.72612 8.54656 10 7.26006 10 5.03108ZM5 2.01243C6.18052 2.01243 6.89111 2.48895 7.33238 3.06615C7.80465 3.68393 8 4.4662 8 5.03108C8 6.5 7.11159 7.27623 6.69833 7.56053C6.31511 7.82418 6 8.28888 6 8.86378L6 12.0746L6 16.1858L4.33298 17.8632L2.51119 16.8157L3.53099 15.533C3.96925 14.9818 3.96925 14.1985 3.53099 13.6473L2.34 12.1493L3.56066 10.921C3.84196 10.638 4 10.2541 4 9.85377L4 8.86378C4 8.27687 3.67095 7.81544 3.28998 7.55907C2.77927 7.21538 2 6.37329 2 5.03108C2 3.15188 3.4686 2.01243 5 2.01243ZM6 5.03108C6 4.47536 5.55229 4.02487 5 4.02487C4.44771 4.02487 4 4.47536 4 5.03108C4 5.5868 4.44771 6.0373 5 6.0373C5.55228 6.0373 6 5.5868 6 5.03108Z" fill="#DDD"/>
</svg>
